<?xml version="1.0" standalone="no"?><!-- Generator: Adobe Fireworks CS6, Export SVG Extension by Aaron Beall (http://fireworks.abeall.com) . Version: 0.6.1  --><!DOCTYPE svg PUBLIC "-//W3C//DTD SVG 1.1//EN" "http://www.w3.org/Graphics/SVG/1.1/DTD/svg11.dtd"><svg id="Untitled-Page%201" viewBox="0 0 32 29" style="background-color:#ffffff00" version="1.1"	xmlns="http://www.w3.org/2000/svg" xmlns:xlink="http://www.w3.org/1999/xlink" xml:space="preserve"	x="0px" y="0px" width="32px" height="29px">	<g id="Layer%201">		<path d="M 24.9958 7.0049 C 20.4362 2.4434 17.4938 3.5848 14.0001 7.0385 C 10.4747 3.5575 7.5723 2.4623 3.0178 7.0186 C -1.5966 11.6352 -0.4136 14.5549 3.1755 18.1457 L 11.5546 26.5286 L 11.5296 26.5535 L 13.975 29 L 24.838 18.132 C 28.3878 14.5808 29.61 11.6215 24.9958 7.0049 ZM 22.3928 15.6858 L 14.0001 24.082 L 5.6211 15.6993 C 3.4516 13.5289 2.6633 11.7929 5.2264 9.228 C 7.7345 6.7192 9.4497 7.4207 11.5539 9.4837 L 8.9568 12.0821 L 11.402 14.5284 L 14.0001 11.9293 L 16.5983 14.5286 L 19.0435 12.0821 L 16.4463 9.4837 C 18.5566 7.4101 20.2743 6.7005 22.7867 9.2146 C 25.3506 11.7795 24.562 13.5155 22.3928 15.6858 Z" fill="#68009e"/>		<path d="M 26.9958 5.0049 C 22.4362 0.4434 19.4938 1.5848 16.0001 5.0385 C 12.4747 1.5575 9.5723 0.4623 5.0178 5.0186 C 0.4034 9.6352 1.5864 12.5549 5.1755 16.1457 L 13.5546 24.5286 L 13.5296 24.5535 L 15.975 27 L 26.838 16.132 C 30.3878 12.5808 31.61 9.6215 26.9958 5.0049 ZM 24.3928 13.6858 L 16.0001 22.082 L 7.6211 13.6993 C 5.4516 11.5289 4.6633 9.7929 7.2264 7.228 C 9.7345 4.7192 11.4497 5.4207 13.5539 7.4837 L 10.9568 10.0821 L 13.402 12.5284 L 16.0001 9.9293 L 18.5983 12.5286 L 21.0435 10.0821 L 18.4463 7.4837 C 20.5566 5.4101 22.2743 4.7005 24.7867 7.2146 C 27.3506 9.7795 26.562 11.5155 24.3928 13.6858 Z" fill="#ffffff"/>	</g></svg>